<?xml version="1.0" standalone="no"?>
<!DOCTYPE svg PUBLIC "-//W3C//DTD SVG 20010904//EN"
 "http://www.w3.org/TR/2001/REC-SVG-20010904/DTD/svg10.dtd">
<svg version="1.0" xmlns="http://www.w3.org/2000/svg"
 width="752.000000pt" height="752.000000pt" viewBox="0 0 752.000000 752.000000"
 preserveAspectRatio="xMidYMid meet">
<metadata>
Created by potrace 1.11, written by Peter Selinger 2001-2013
</metadata>
<g transform="translate(0.000000,752.000000) scale(0.100000,-0.100000)"
fill="#000000" stroke="none">
<path d="M16 7478 c-14 -20 -16 -390 -16 -3734 0 -2042 3 -3719 6 -3728 6 -15
346 -16 3760 -16 l3754 0 -2 3748 -3 3747 -3742 3 -3742 2 -15 -22z m6061
-2207 c77 -25 137 -55 178 -89 6 -5 23 -17 38 -27 15 -9 50 -45 77 -79 28 -33
55 -67 61 -74 33 -40 79 -174 89 -258 13 -120 13 -2098 0 -2218 -8 -63 -21
-113 -46 -172 -20 -46 -40 -84 -45 -84 -5 0 -9 -7 -9 -15 0 -23 -127 -147
-193 -189 -32 -20 -89 -49 -125 -64 l-67 -27 -1459 -3 -1460 -2 -45 -35 c-25
-19 -55 -41 -66 -49 -24 -19 -182 -140 -210 -161 -44 -34 -241 -185 -260 -199
-11 -9 -58 -45 -105 -81 -47 -35 -91 -70 -99 -76 -7 -7 -52 -41 -100 -77 -47
-36 -102 -78 -121 -93 -19 -16 -38 -29 -42 -29 -5 0 -8 180 -8 399 l0 400
-307 3 c-307 4 -308 4 -375 30 -36 15 -93 44 -125 64 -66 42 -193 166 -193
189 0 8 -4 15 -9 15 -5 0 -25 38 -45 84 -25 59 -38 109 -46 172 -13 120 -13
2098 0 2218 8 63 21 113 46 172 20 46 40 84 45 84 4 0 10 9 14 19 6 21 106
126 145 153 79 56 112 73 189 98 l86 29 2252 0 2251 1 89 -29z"/>
<path d="M4707 4490 c-93 -23 -159 -79 -201 -170 -37 -79 -35 -152 5 -233 38
-77 70 -112 134 -144 217 -111 461 82 411 325 -19 93 -82 171 -169 207 -44 18
-134 26 -180 15z"/>
<path d="M2575 4473 c-54 -15 -129 -83 -163 -148 -25 -47 -26 -59 -30 -232
l-4 -183 -165 0 c-187 0 -220 -7 -289 -59 -131 -99 -144 -303 -26 -424 20 -21
53 -45 72 -53 19 -9 43 -20 52 -25 10 -5 94 -9 187 -9 l169 0 4 -183 c4 -181
4 -183 33 -234 121 -208 381 -207 506 2 22 38 24 51 27 228 l4 187 169 0 c156
0 173 2 222 24 104 46 177 157 177 269 0 70 -44 161 -100 210 -68 58 -110 67
-301 67 l-167 0 -4 188 c-3 169 -5 191 -24 227 -26 47 -58 81 -115 121 -36 25
-51 28 -127 30 -48 2 -96 0 -107 -3z"/>
<path d="M4101 3907 c-67 -27 -126 -85 -160 -157 -88 -185 59 -410 269 -410
197 0 341 210 271 395 -27 71 -102 152 -154 166 -23 7 -46 16 -51 21 -18 15
-120 6 -175 -15z"/>
<path d="M5234 3907 c-67 -28 -105 -62 -146 -128 -31 -51 -33 -60 -33 -144 0
-80 3 -95 27 -135 42 -71 80 -108 141 -135 130 -57 279 -13 361 107 61 91 62
234 2 322 -79 117 -229 164 -352 113z"/>
<path d="M4700 3348 c-14 -6 -42 -17 -62 -25 -80 -33 -158 -163 -158 -263 0
-111 82 -228 189 -270 73 -28 135 -28 209 -1 194 73 249 334 101 480 -27 27
-64 54 -82 61 -17 6 -40 16 -49 21 -23 12 -117 10 -148 -3z"/>
</g>
</svg>
