<?xml version="1.0" standalone="no"?>
<!DOCTYPE svg PUBLIC "-//W3C//DTD SVG 20010904//EN"
 "http://www.w3.org/TR/2001/REC-SVG-20010904/DTD/svg10.dtd">
<svg version="1.0" xmlns="http://www.w3.org/2000/svg"
 width="1054.000000pt" height="752.000000pt" viewBox="0 0 1054.000000 752.000000"
 preserveAspectRatio="xMidYMid meet">
<metadata>
Created by potrace 1.15, written by Peter Selinger 2001-2017
</metadata>
<g transform="translate(0.000000,752.000000) scale(0.100000,-0.100000)"
fill="#78E4E0" stroke="none">
<path d="M20 7480 c-20 -20 -20 -33 -20 -3734 0 -2043 3 -3721 6 -3730 6 -15
479 -16 5270 -16 l5264 0 0 3744 c0 3405 -1 3744 -16 3750 -9 3 -2371 6 -5250
6 -5221 0 -5234 0 -5254 -20z m7159 -2252 c186 -68 321 -225 350 -408 15 -89
15 -1741 0 -1830 -29 -183 -174 -350 -358 -412 l-66 -23 -1173 -5 -1172 -5
-411 -315 c-227 -173 -416 -316 -420 -318 -5 -2 -9 139 -9 316 l0 319 -232 6
c-200 4 -242 8 -299 26 -182 58 -327 225 -358 412 -15 91 -15 1737 0 1828 37
223 226 404 449 431 36 4 866 7 1845 6 l1780 -1 74 -27z"/>
<path d="M6015 4576 c-115 -53 -164 -188 -111 -301 41 -89 97 -131 184 -142
182 -21 316 165 238 332 -56 121 -189 169 -311 111z"/>
<path d="M4346 4583 c-26 -7 -87 -46 -108 -70 -39 -43 -48 -88 -48 -237 l0
-145 -148 -3 c-135 -3 -152 -5 -197 -29 -72 -37 -109 -99 -113 -193 -3 -66 -1
-75 30 -126 25 -42 45 -61 87 -82 51 -27 59 -28 197 -28 l144 0 0 -147 c0
-168 11 -207 71 -257 48 -41 90 -56 154 -56 68 0 118 23 168 79 48 53 57 92
57 249 l0 132 138 0 c123 0 142 3 187 24 61 28 87 56 116 120 35 81 12 193
-53 253 -53 50 -103 63 -250 63 l-138 0 0 134 c0 152 -12 201 -63 255 -57 59
-148 85 -231 64z"/>
<path d="M5570 4123 c-86 -36 -143 -124 -143 -218 0 -69 23 -122 75 -172 113
-109 298 -73 367 71 25 50 28 140 8 189 -49 116 -196 178 -307 130z"/>
<path d="M6470 4113 c-127 -65 -167 -219 -88 -338 40 -60 92 -94 156 -102 69
-8 111 2 166 38 70 47 101 107 101 194 0 58 -5 78 -27 116 -65 111 -195 149
-308 92z"/>
<path d="M6036 3665 c-80 -28 -156 -136 -155 -220 1 -129 107 -235 237 -235
96 0 166 45 208 135 89 187 -95 390 -290 320z"/>
</g>
</svg>
